# WaveFront *.obj file (generated by Autodesk ATF)

mtllib tank.mtl

g Body1

v -13.000000 -28.000000 20.000000
v 13.000000 -28.000000 20.000000
v 13.000000 -28.000000 2.000000
v -13.000000 -28.000000 2.000000
v 13.000000 28.000000 20.000000
v 13.000000 28.000000 2.000000
v -13.000000 28.000000 20.000000
v -13.000000 28.000000 2.000000
v -15.000000 -30.000000 0.000000
v 15.000000 -30.000000 0.000000
v 15.000000 -30.000000 20.000000
v -15.000000 -30.000000 20.000000
v -15.000000 30.000000 0.000000
v -15.000000 30.000000 20.000000
v 15.000000 30.000000 0.000000
v 15.000000 30.000000 20.000000
vt -2.600000 0.000000 0.000000
vt 0.000000 0.000000 0.000000
vt -2.600000 1.800000 0.000000
vt -0.000000 1.800000 0.000000
vt -5.600000 -0.000000 0.000000
vt 0.000000 0.000000 0.000000
vt -5.600000 1.800000 0.000000
vt -0.000000 1.800000 0.000000
vt -2.600000 0.000000 0.000000
vt -0.000000 0.000000 0.000000
vt -2.600000 1.800000 0.000000
vt -0.000000 1.800000 0.000000
vt -5.600000 0.000000 0.000000
vt -0.000000 0.000000 0.000000
vt -5.600000 1.800000 0.000000
vt -0.000000 1.800000 0.000000
vt -1.300000 -2.800000 0.000000
vt 1.300000 -2.800000 0.000000
vt -1.300000 2.800000 0.000000
vt 1.300000 2.800000 0.000000
vt 0.000000 0.000000 0.000000
vt 3.000000 0.000000 0.000000
vt 0.000000 2.000000 0.000000
vt 3.000000 2.000000 0.000000
vt 0.000000 0.000000 0.000000
vt 6.000000 0.000000 0.000000
vt 0.000000 2.000000 0.000000
vt 6.000000 2.000000 0.000000
vt 0.000000 0.000000 0.000000
vt 3.000000 0.000000 0.000000
vt 0.000000 2.000000 0.000000
vt 3.000000 2.000000 0.000000
vt 0.000000 0.000000 0.000000
vt 6.000000 0.000000 0.000000
vt 0.000000 2.000000 0.000000
vt 6.000000 2.000000 0.000000
vt 1.300000 2.800000 0.000000
vt 1.300000 -2.800000 0.000000
vt 1.500000 -3.000000 0.000000
vt -1.300000 -2.800000 0.000000
vt -1.500000 -3.000000 0.000000
vt -1.300000 2.800000 0.000000
vt -1.500000 3.000000 0.000000
vt 1.500000 3.000000 0.000000
vt -1.500000 -3.000000 0.000000
vt 1.500000 -3.000000 0.000000
vt -1.500000 3.000000 0.000000
vt 1.500000 3.000000 0.000000
vn -0.000000 0.100000 -0.000000
vn -0.000000 0.100000 -0.000000
vn -0.000000 0.100000 -0.000000
vn -0.000000 0.100000 -0.000000
vn -0.100000 0.000000 -0.000000
vn -0.100000 0.000000 -0.000000
vn -0.100000 0.000000 -0.000000
vn -0.100000 0.000000 -0.000000
vn 0.000000 -0.100000 0.000000
vn 0.000000 -0.100000 0.000000
vn 0.000000 -0.100000 0.000000
vn 0.000000 -0.100000 0.000000
vn 0.100000 0.000000 0.000000
vn 0.100000 0.000000 0.000000
vn 0.100000 0.000000 0.000000
vn 0.100000 0.000000 0.000000
vn 0.000000 0.000000 0.100000
vn 0.000000 0.000000 0.100000
vn 0.000000 0.000000 0.100000
vn 0.000000 0.000000 0.100000
vn 0.000000 -0.100000 0.000000
vn 0.000000 -0.100000 0.000000
vn 0.000000 -0.100000 0.000000
vn 0.000000 -0.100000 0.000000
vn -0.100000 0.000000 0.000000
vn -0.100000 0.000000 0.000000
vn -0.100000 0.000000 0.000000
vn -0.100000 0.000000 0.000000
vn 0.000000 0.100000 0.000000
vn 0.000000 0.100000 0.000000
vn 0.000000 0.100000 0.000000
vn 0.000000 0.100000 0.000000
vn 0.100000 -0.000000 0.000000
vn 0.100000 -0.000000 0.000000
vn 0.100000 -0.000000 0.000000
vn 0.100000 -0.000000 0.000000
vn 0.000000 0.000000 0.100000
vn 0.000000 0.000000 0.100000
vn 0.000000 0.000000 0.100000
vn 0.000000 0.000000 0.100000
vn 0.000000 0.000000 0.100000
vn 0.000000 0.000000 0.100000
vn 0.000000 0.000000 0.100000
vn 0.000000 0.000000 0.100000
vn 0.000000 0.000000 -0.100000
vn 0.000000 0.000000 -0.100000
vn 0.000000 0.000000 -0.100000
vn 0.000000 0.000000 -0.100000
usemtl Steel_-_Satin
f 1/1/1 2/2/2 4/3/3
f 4/3/3 2/2/2 3/4/4
f 2/5/5 5/6/6 3/7/7
f 3/7/7 5/6/6 6/8/8
f 5/9/9 7/10/10 6/11/11
f 6/11/11 7/10/10 8/12/12
f 7/13/13 1/14/14 8/15/15
f 8/15/15 1/14/14 4/16/16
f 4/17/17 3/18/18 8/19/19
f 8/19/19 3/18/18 6/20/20
f 9/21/21 10/22/22 12/23/23
f 12/23/23 10/22/22 11/24/24
f 13/25/25 9/26/26 14/27/27
f 14/27/27 9/26/26 12/28/28
f 15/29/29 13/30/30 16/31/31
f 16/31/31 13/30/30 14/32/32
f 10/33/33 15/34/34 11/35/35
f 11/35/35 15/34/34 16/36/36
f 5/37/37 2/38/38 11/39/39
f 11/39/39 2/38/38 1/40/40
f 11/39/39 1/40/40 12/41/41
f 12/41/41 1/40/40 7/42/42
f 12/41/41 7/42/42 14/43/43
f 14/43/43 7/42/42 5/37/37
f 14/43/43 5/37/37 16/44/44
f 16/44/44 5/37/37 11/39/39
f 10/45/45 9/46/46 15/47/47
f 15/47/47 9/46/46 13/48/48
# 16 vertices
# 48 texture params
# 48 normals
# 28 facets

# 1 groups
